<?xml version="1.0" encoding="utf-8" ?>
<svg baseProfile="tiny" height="192" version="1.2" width="192" xmlns="http://www.w3.org/2000/svg" xmlns:ev="http://www.w3.org/2001/xml-events" xmlns:xlink="http://www.w3.org/1999/xlink"><defs /><polygon fill="#B4D334" points="135,116 134,117 132,117 131,118 130,118 129,119 128,119 126,121 125,121 121,125 121,126 119,128 119,129 118,130 118,131 117,132 117,134 116,135 116,191 191,191 191,116" /><polygon fill="#00A5C7" points="0,115 0,191 76,191 76,138 75,137 75,134 74,133 74,131 73,130 73,129 72,128 72,127 64,119 63,119 62,118 61,118 60,117 58,117 57,116 55,116 54,115" /><polygon fill="#00A5C7" points="115,0 115,54 116,55 116,57 117,58 117,60 118,61 118,62 119,63 119,64 127,72 128,72 129,73 130,73 131,74 133,74 134,75 137,75 138,76 191,76 191,0" /><polygon fill="#B4D334" points="0,0 0,75 56,75 57,74 59,74 60,73 61,73 62,72 63,72 65,70 66,70 70,66 70,65 72,63 72,62 73,61 73,60 74,59 74,57 75,56 75,0" /></svg>
